<svg width="85" height="85" viewBox="0 0 85 85" fill="none" xmlns="http://www.w3.org/2000/svg">
<path fill-rule="evenodd" clip-rule="evenodd" d="M83.1 40.8994L83.0649 40.8735C82.5825 41.5305 81.8095 41.9618 80.9339 41.9618C79.4657 41.9618 78.2777 40.7738 78.2777 39.3055C78.2777 38.7517 78.4475 38.2367 78.7381 37.812L78.7095 37.7926C79.3178 36.7881 79.6875 35.626 79.6875 34.3666C79.6875 31.5333 77.9066 29.1279 75.4088 28.1753C63.0962 22.0678 49.2328 18.5938 34.5312 18.5938C26.3342 18.5938 18.4005 19.6909 10.8403 21.6974C10.5835 21.7422 10.3423 21.8128 10.0933 21.8868L8.68727 16.7903C16.9167 14.5206 25.5767 13.2812 34.5312 13.2812C50.479 13.2812 65.5139 17.1541 78.786 23.9801L78.7925 23.9672C82.4917 25.9989 85 29.9301 85 34.4502C85 36.8262 84.2982 39.0382 83.1 40.8994ZM5.3125 28.2461C5.3125 31.923 8.29431 34.9074 11.9739 34.9074C12.5446 34.9074 13.0918 34.8141 13.6198 34.6792L13.6289 34.7142C20.2838 32.8764 27.2901 31.8745 34.5312 31.8745C48.4947 31.8745 61.5931 35.5418 72.9483 41.9463L72.9585 41.9301C76.1842 43.81 78.3605 47.2977 78.3605 51.299C78.3605 57.2912 73.5019 62.1458 67.5137 62.1458C65.5332 62.1458 63.6851 61.6089 62.0859 60.6815L62.0794 60.6907C53.7786 55.8878 44.1484 53.1278 33.8684 53.1278C26.5949 53.1278 19.6468 54.5195 13.259 57.0305C11.7262 57.584 10.625 59.0393 10.625 60.7617C10.625 62.9641 12.4083 64.7474 14.6107 64.7474C15.1386 64.7474 15.6445 64.6385 16.1048 64.4517L18.062 69.3998C17.0063 69.8122 15.8661 70.0601 14.6652 70.0601C9.49792 70.0599 5.3125 65.8718 5.3125 60.7073C5.3125 56.7722 7.74961 53.4182 11.1918 52.0394L13.0983 56.859L11.1878 52.0303C18.2265 49.3156 25.8699 47.8112 33.8684 47.8112C45.0407 47.8112 55.5231 50.7423 64.6254 55.8357C65.4827 56.396 66.4995 56.7242 67.5967 56.7242C70.6084 56.7242 73.048 54.2833 73.048 51.2743C73.048 49.2419 71.9248 47.4896 70.2764 46.5531L70.2829 46.5402C59.7125 40.5935 47.5233 37.1875 34.5312 37.1875C27.7791 37.1875 21.25 38.1207 15.0425 39.8373L15.0452 39.8464C14.0633 40.1077 13.036 40.2588 11.9739 40.2588C5.36048 40.2588 0 34.8983 0 28.2849C0 22.8142 3.6731 18.2104 8.68345 16.7805L10.0908 21.8868C7.33706 22.7053 5.3125 25.2259 5.3125 28.2461ZM5.3125 43.8295C6.78074 43.8295 7.96875 45.0175 7.96875 46.4857C7.96875 47.9539 6.78074 49.142 5.3125 49.142C3.84426 49.142 2.65625 47.9539 2.65625 46.4857C2.65625 45.0175 3.84426 43.8295 5.3125 43.8295ZM33.8685 61.0964C42.6932 61.0964 50.9552 63.4764 58.0796 67.5944C59.0654 67.9809 59.767 68.9368 59.767 70.0601C59.767 71.5283 58.5763 72.7163 57.1107 72.7163C56.6243 72.7163 56.1807 72.5789 55.7877 72.3493L55.7683 72.3817C49.3481 68.5918 41.8618 66.4089 33.8685 66.4089C28.2889 66.4089 22.9633 67.4777 18.0658 69.4063L16.1113 64.4674C21.6106 62.3012 27.5963 61.0964 33.8685 61.0964ZM66.4062 69.0652C67.8745 69.0652 69.0625 70.2532 69.0625 71.7214C69.0625 73.187 67.8745 74.3777 66.4062 74.3777C64.938 74.3777 63.75 73.187 63.75 71.7214C63.75 70.2532 64.938 69.0652 66.4062 69.0652Z" fill="#6ACB08"/>
</svg>
